<svg width="20" height="20" viewBox="0 0 20 20" fill="none" xmlns="http://www.w3.org/2000/svg">
<g opacity="0.7">
<rect width="19.8847" height="19.9115" rx="1.65706" fill="url(#paint0_linear_3_5073)"/>
<g clip-path="url(#clip0_3_5073)">
<path d="M14.7418 7.5932C14.6344 7.05917 14.3668 6.57055 13.9747 6.19244C13.5826 5.81432 13.0846 5.56466 12.5471 5.47672C12.1432 5.41233 11.7298 5.44221 11.3394 5.56402C10.949 5.68583 10.592 5.89627 10.2964 6.1789C10.2001 6.26839 10.0736 6.31814 9.94216 6.31814C9.81074 6.31814 9.68419 6.26839 9.58796 6.1789C9.09712 5.70413 8.44219 5.43679 7.75932 5.43243C7.07646 5.42807 6.41817 5.68704 5.92131 6.1555C5.42445 6.62396 5.12722 7.26587 5.09142 7.94782C5.05562 8.62976 5.284 9.29927 5.72908 9.81718L9.40527 14.198C9.47106 14.2763 9.55319 14.3392 9.64588 14.3824C9.73857 14.4256 9.83959 14.448 9.94185 14.448C10.0441 14.448 10.1451 14.4256 10.2378 14.3824C10.3305 14.3392 10.4126 14.2763 10.4784 14.198L14.1546 9.81718C14.4146 9.51543 14.6025 9.15852 14.7043 8.77345C14.806 8.38837 14.8188 7.98521 14.7418 7.59444V7.5932Z" fill="white"/>
</g>
</g>
<defs>
<linearGradient id="paint0_linear_3_5073" x1="0" y1="0" x2="19.9115" y2="19.8847" gradientUnits="userSpaceOnUse">
<stop stop-color="#450AF5"/>
<stop offset="1" stop-color="#C4EFD9"/>
</linearGradient>
<clipPath id="clip0_3_5073">
<rect width="9.94236" height="9.94236" fill="white" transform="translate(4.97113 4.97119)"/>
</clipPath>
</defs>
</svg>
