<svg width="20" height="20" viewBox="0 0 20 20" fill="none" xmlns="http://www.w3.org/2000/svg">
<g clip-path="url(#clip0_3_5045)">
<path d="M11.1851 1.25513C10.8072 1.03697 10.3786 0.922119 9.94228 0.922119C9.50597 0.922119 9.07735 1.03697 8.69949 1.25513L2.48551 4.84266C2.23361 4.98809 2.02443 5.19727 1.879 5.44917C1.73356 5.70107 1.65699 5.98681 1.65698 6.27768V17.399C1.65698 17.6188 1.74427 17.8295 1.89965 17.9849C2.05503 18.1403 2.26577 18.2276 2.48551 18.2276H7.45669C7.67643 18.2276 7.88717 18.1403 8.04255 17.9849C8.19793 17.8295 8.28522 17.6188 8.28522 17.399V12.4279H11.5993V17.399C11.5993 17.6188 11.6866 17.8295 11.842 17.9849C11.9974 18.1403 12.2081 18.2276 12.4279 18.2276H17.3991C17.6188 18.2276 17.8295 18.1403 17.9849 17.9849C18.1403 17.8295 18.2276 17.6188 18.2276 17.399V6.27768C18.2276 5.98681 18.151 5.70107 18.0056 5.44917C17.8601 5.19727 17.651 4.98809 17.3991 4.84266L11.1851 1.25513Z" fill="white"/>
</g>
<defs>
<clipPath id="clip0_3_5045">
<rect width="19.8847" height="19.8847" fill="white"/>
</clipPath>
</defs>
</svg>
