<svg width="20" height="20" viewBox="0 0 20 20" fill="none" xmlns="http://www.w3.org/2000/svg">
<g clip-path="url(#clip0_3_5111)">
<path d="M9.94232 2.48567C8.96309 2.48567 7.99344 2.67855 7.08874 3.05329C6.18404 3.42802 5.36201 3.97729 4.66959 4.66971C3.97716 5.36214 3.4279 6.18417 3.05316 7.08886C2.67843 7.99356 2.48555 8.96321 2.48555 9.94245C2.48555 10.9217 2.67843 11.8913 3.05316 12.796C3.4279 13.7007 3.97716 14.5228 4.66959 15.2152C5.36201 15.9076 6.18404 16.4569 7.08874 16.8316C7.99344 17.2063 8.96309 17.3992 9.94232 17.3992C11.92 17.3992 13.8166 16.6136 15.2151 15.2152C16.6135 13.8168 17.3991 11.9201 17.3991 9.94245C17.3991 7.96479 16.6135 6.06813 15.2151 4.66971C13.8166 3.2713 11.92 2.48567 9.94232 2.48567ZM0.828491 9.94245C0.828491 4.90912 4.909 0.828613 9.94232 0.828613C14.9756 0.828613 19.0562 4.90912 19.0562 9.94245C19.0562 14.9758 14.9756 19.0563 9.94232 19.0563C4.909 19.0563 0.828491 14.9758 0.828491 9.94245Z" fill="white"/>
<path d="M9.94236 5.01282C10.1621 5.01282 10.3728 5.10011 10.5282 5.25549C10.6836 5.41087 10.7709 5.62161 10.7709 5.84135V12.0437L12.2564 10.5582C12.3329 10.479 12.4243 10.4159 12.5254 10.3725C12.6265 10.3291 12.7352 10.3062 12.8452 10.3053C12.9552 10.3043 13.0643 10.3253 13.1661 10.3669C13.268 10.4086 13.3605 10.4701 13.4383 10.5479C13.5161 10.6257 13.5776 10.7182 13.6192 10.82C13.6609 10.9218 13.6819 11.0309 13.6809 11.141C13.6799 11.251 13.6571 11.3597 13.6137 11.4608C13.5702 11.5619 13.5071 11.6533 13.428 11.7297L9.94236 15.2153L6.45674 11.7297C6.3776 11.6533 6.31448 11.5619 6.27106 11.4608C6.22764 11.3597 6.20478 11.251 6.20383 11.141C6.20287 11.0309 6.22383 10.9218 6.26549 10.82C6.30715 10.7182 6.36867 10.6257 6.44647 10.5479C6.52426 10.4701 6.61677 10.4086 6.71859 10.3669C6.82041 10.3253 6.92951 10.3043 7.03953 10.3053C7.14954 10.3062 7.25826 10.3291 7.35934 10.3725C7.46043 10.4159 7.55185 10.479 7.62828 10.5582L9.11383 12.0437V5.84135C9.11383 5.62161 9.20112 5.41087 9.3565 5.25549C9.51188 5.10011 9.72262 5.01282 9.94236 5.01282Z" fill="white"/>
</g>
<defs>
<clipPath id="clip0_3_5111">
<rect width="19.8847" height="19.8847" fill="white"/>
</clipPath>
</defs>
</svg>
