<svg width="20" height="20" viewBox="0 0 20 20" fill="none" xmlns="http://www.w3.org/2000/svg">
<g clip-path="url(#clip0_3_5057)">
<path d="M12.0136 1.76825C12.1396 1.69553 12.2824 1.65725 12.4279 1.65725C12.5733 1.65725 12.7162 1.69553 12.8421 1.76825L17.8133 4.63828C17.9393 4.711 18.0439 4.81558 18.1166 4.94153C18.1893 5.06748 18.2276 5.21035 18.2276 5.35579V17.3993C18.2276 17.619 18.1403 17.8298 17.9849 17.9852C17.8295 18.1405 17.6188 18.2278 17.3991 18.2278H12.4279C12.2081 18.2278 11.9974 18.1405 11.842 17.9852C11.6866 17.8298 11.5993 17.619 11.5993 17.3993V2.48576C11.5993 2.34032 11.6376 2.19745 11.7104 2.0715C11.7831 1.94556 11.8877 1.84097 12.0136 1.76825ZM13.2564 3.92077V16.5708H16.5705V5.83385L13.2564 3.92077ZM2.48551 18.2278C2.26577 18.2278 2.05503 18.1405 1.89965 17.9852C1.74427 17.8298 1.65698 17.619 1.65698 17.3993V2.48576C1.65698 2.26602 1.74427 2.05528 1.89965 1.8999C2.05503 1.74452 2.26577 1.65723 2.48551 1.65723C2.70525 1.65723 2.91599 1.74452 3.07137 1.8999C3.22675 2.05528 3.31404 2.26602 3.31404 2.48576V17.3993C3.31404 17.619 3.22675 17.8298 3.07137 17.9852C2.91599 18.1405 2.70525 18.2278 2.48551 18.2278ZM7.45669 18.2278C7.23695 18.2278 7.02621 18.1405 6.87083 17.9852C6.71546 17.8298 6.62816 17.619 6.62816 17.3993V2.48576C6.62816 2.26602 6.71546 2.05528 6.87083 1.8999C7.02621 1.74452 7.23695 1.65723 7.45669 1.65723C7.67643 1.65723 7.88717 1.74452 8.04255 1.8999C8.19793 2.05528 8.28522 2.26602 8.28522 2.48576V17.3993C8.28522 17.619 8.19793 17.8298 8.04255 17.9852C7.88717 18.1405 7.67643 18.2278 7.45669 18.2278Z" fill="white"/>
</g>
<defs>
<clipPath id="clip0_3_5057">
<rect width="19.8847" height="19.8847" fill="white"/>
</clipPath>
</defs>
</svg>
