<svg width="20" height="20" viewBox="0 0 20 20" fill="none" xmlns="http://www.w3.org/2000/svg">
<rect width="19.8847" height="19.8847" rx="1.65706" fill="white"/>
<g clip-path="url(#clip0_3_5066)">
<path d="M14.4474 9.94239C14.4474 10.066 14.3983 10.1845 14.3109 10.2719C14.2235 10.3593 14.105 10.4084 13.9814 10.4084H10.4083V13.9815C10.4083 14.1051 10.3592 14.2236 10.2718 14.311C10.1844 14.3984 10.0659 14.4475 9.94227 14.4475C9.81866 14.4475 9.70012 14.3984 9.61272 14.311C9.52532 14.2236 9.47622 14.1051 9.47622 13.9815V10.4084H5.90318C5.77958 10.4084 5.66104 10.3593 5.57364 10.2719C5.48624 10.1845 5.43713 10.066 5.43713 9.94239C5.43713 9.81879 5.48624 9.70024 5.57364 9.61284C5.66104 9.52544 5.77958 9.47634 5.90318 9.47634H9.47622V5.9033C9.47622 5.7797 9.52532 5.66116 9.61272 5.57376C9.70012 5.48636 9.81866 5.43726 9.94227 5.43726C10.0659 5.43726 10.1844 5.48636 10.2718 5.57376C10.3592 5.66116 10.4083 5.7797 10.4083 5.9033V9.47634H13.9814C14.105 9.47634 14.2235 9.52544 14.3109 9.61284C14.3983 9.70024 14.4474 9.81879 14.4474 9.94239Z" fill="black"/>
</g>
<defs>
<clipPath id="clip0_3_5066">
<rect width="9.94236" height="9.94236" fill="white" transform="translate(4.97113 4.97119)"/>
</clipPath>
</defs>
</svg>
