<svg width="20" height="20" viewBox="0 0 20 20" fill="none" xmlns="http://www.w3.org/2000/svg">
<g clip-path="url(#clip0_3_5051)">
<path d="M8.72685 1.05967C4.43506 1.05967 0.932861 4.48978 0.932861 8.7476C0.932861 13.0054 4.43423 16.4355 8.72685 16.4355C10.5778 16.4355 12.2812 15.7976 13.621 14.7304L17.2276 18.337C17.304 18.4161 17.3954 18.4793 17.4965 18.5227C17.5976 18.5661 17.7063 18.589 17.8163 18.5899C17.9263 18.5909 18.0354 18.5699 18.1373 18.5282C18.2391 18.4866 18.3316 18.4251 18.4094 18.3473C18.4872 18.2695 18.5487 18.177 18.5904 18.0752C18.632 17.9733 18.653 17.8642 18.652 17.7542C18.6511 17.6442 18.6282 17.5355 18.5848 17.4344C18.5414 17.3333 18.4782 17.2419 18.3991 17.1655L14.8 13.5663C15.9143 12.2078 16.5225 10.5047 16.5208 8.7476C16.5208 4.48895 13.0195 1.05884 8.72685 1.05884V1.05967ZM2.58992 8.7476C2.58992 5.42851 5.32573 2.7159 8.72685 2.7159C12.128 2.7159 14.8638 5.42851 14.8638 8.7476C14.8638 12.0667 12.128 14.7785 8.72685 14.7785C5.32573 14.7785 2.58992 12.0675 2.58992 8.7476Z" fill="white"/>
</g>
<defs>
<clipPath id="clip0_3_5051">
<rect width="19.8847" height="19.8847" fill="white"/>
</clipPath>
</defs>
</svg>
