<svg width="109" height="34" viewBox="0 0 109 34" fill="none" xmlns="http://www.w3.org/2000/svg">
<g clip-path="url(#clip0_3_5040)">
<path d="M0.765564 16.6663C0.765564 25.4718 8.03968 32.7459 16.8452 32.7459C25.6507 32.7459 32.9248 25.4718 32.9248 16.6663C32.9248 7.86078 25.6507 0.682373 16.8452 0.682373C8.03968 0.682373 0.765564 7.86078 0.765564 16.6663ZM22.7793 24.1318C19.0466 21.8347 14.261 21.2605 8.70966 22.5047C7.3697 22.6961 7.17827 20.7819 8.32682 20.5905C14.4524 19.1548 19.6208 19.8248 23.8322 22.409C24.885 23.079 23.8322 24.7061 22.7793 24.1318ZM24.4064 19.8248C20.0994 17.1448 13.4953 16.3791 8.42253 17.9105C6.79542 18.3891 6.22115 15.9006 7.75254 15.5177C13.591 13.7949 20.7694 14.6563 25.7464 17.7191C27.0864 18.5805 25.7464 20.6862 24.4064 19.8248ZM7.65683 13.0292C6.02973 13.6035 4.97689 10.8279 6.79542 10.1579C12.4424 8.43505 22.0136 8.72219 27.9478 12.2635C29.5749 13.1249 28.0435 15.8049 26.3207 14.8478C21.1522 11.785 12.5381 11.4978 7.65683 13.0292ZM43.9317 21.739C42.3046 21.739 40.7732 21.1648 39.4332 19.8248C39.3375 19.8248 39.3375 19.9205 39.3375 19.9205L37.8061 21.739C37.7104 21.8347 37.7104 21.9304 37.8061 22.0262C39.5289 23.5576 41.6346 24.3232 43.9317 24.3232C47.1859 24.3232 49.1959 22.5047 49.1959 19.8248C49.1959 17.5277 47.7602 16.2834 44.4103 15.422C41.6346 14.752 41.156 14.2735 41.156 13.3164C41.156 12.3592 42.1132 11.785 43.3574 11.785C44.6017 11.785 45.7502 12.2635 47.0902 13.2207C47.0902 13.2207 47.1859 13.3164 47.2816 13.3164C47.3773 13.3164 47.3773 13.2207 47.3773 13.2207L48.7173 11.3064C48.813 11.2107 48.813 11.2107 48.7173 11.115C47.1859 9.87073 45.3674 9.20075 43.3574 9.20075C40.3904 9.20075 38.2847 11.0193 38.2847 13.6035C38.2847 16.3791 40.1989 17.2406 43.2617 18.0063C45.9417 18.5805 46.3245 19.1548 46.3245 20.1119C46.3245 21.1648 45.3674 21.739 43.9317 21.739ZM53.0243 14.3692V13.1249C53.0243 13.0292 52.9286 12.9335 52.8329 12.9335H50.3444C50.2487 12.9335 50.153 13.0292 50.153 13.1249V27.1946C50.153 27.2903 50.2487 27.386 50.3444 27.386H52.8329C52.9286 27.386 53.0243 27.2903 53.0243 27.1946V22.7919C53.9815 23.8447 55.0343 24.3232 56.47 24.3232C59.0542 24.3232 61.6384 22.3133 61.6384 18.4848C61.6384 14.6563 59.0542 12.7421 56.47 12.7421C55.0343 12.7421 53.9815 13.2207 53.0243 14.3692ZM55.8957 21.8347C54.1729 21.8347 52.9286 20.3991 52.9286 18.4848C52.9286 16.5706 54.1729 15.2306 55.8957 15.2306C57.6185 15.2306 58.7671 16.5706 58.7671 18.4848C58.7671 20.3991 57.6185 21.8347 55.8957 21.8347ZM62.4041 18.5805C62.4041 21.8347 64.9883 24.3232 68.3383 24.3232C71.6882 24.3232 74.2724 21.739 74.2724 18.4848C74.2724 15.2306 71.7839 12.7421 68.434 12.7421C65.0841 12.7421 62.4041 15.3263 62.4041 18.5805ZM65.2755 18.4848C65.2755 16.5706 66.5197 15.2306 68.3383 15.2306C70.1568 15.2306 71.4968 16.6663 71.4968 18.5805C71.4968 20.4948 70.2525 21.8347 68.434 21.8347C66.6155 21.8347 65.2755 20.3991 65.2755 18.4848ZM78.6752 12.9335V10.1579C78.6752 10.0622 78.6752 9.96644 78.5795 9.96644H76.091C75.9952 9.96644 75.8995 10.0622 75.8995 10.1579V12.9335H74.6553C74.5596 12.9335 74.4638 13.0292 74.4638 13.1249V15.2306C74.4638 15.3263 74.5596 15.422 74.6553 15.422H75.8995V20.9733C75.8995 23.1747 76.9524 24.3232 79.1537 24.3232C80.0151 24.3232 80.8765 24.1318 81.5465 23.749C81.6423 23.749 81.6423 23.6533 81.6423 23.5576V21.5476C81.6423 21.4519 81.6423 21.3562 81.5465 21.3562H81.3551C80.8765 21.6433 80.3023 21.739 79.8237 21.739C79.058 21.739 78.6752 21.3562 78.6752 20.5905V15.422H81.5465C81.6423 15.422 81.738 15.3263 81.738 15.2306V13.1249C81.738 13.0292 81.6423 12.9335 81.5465 12.9335H78.6752ZM91.022 12.6464C91.022 11.5935 91.4049 11.2107 92.2663 11.2107C92.7448 11.2107 93.2234 11.2107 93.702 11.4021H93.7977C93.7977 11.4021 93.8934 11.3064 93.8934 11.2107V9.20075C93.8934 9.10503 93.8934 9.00932 93.7977 9.00932C93.3191 8.8179 92.6491 8.72219 91.692 8.72219C89.3949 8.72219 88.2464 10.0622 88.2464 12.455V12.9335H87.0021C86.9064 12.9335 86.8107 13.0292 86.8107 13.1249V15.2306C86.8107 15.3263 86.9064 15.422 87.0021 15.422H88.2464V23.9404C88.2464 24.0361 88.3421 24.1318 88.4378 24.1318H90.9263C91.022 24.1318 91.022 24.0361 91.022 23.9404V15.422H93.4148L96.9562 23.9404C96.5733 24.8018 96.1905 24.9932 95.6162 24.9932C95.1376 24.9932 94.6591 24.8975 94.1805 24.6104H94.0848L93.9891 24.7061L93.1277 26.5246C93.1277 26.6203 93.1277 26.8118 93.2234 26.8118C94.0848 27.2903 94.8505 27.4817 95.8076 27.4817C97.6262 27.4817 98.679 26.6203 99.5404 24.3232L103.847 13.2207V13.0292C103.847 12.9335 103.752 12.9335 103.656 12.9335H101.072C100.976 12.9335 100.976 13.0292 100.976 13.1249L98.2961 20.5905L95.4248 13.1249C95.4248 13.0292 95.3291 12.9335 95.2334 12.9335H91.022V12.6464ZM83.0779 12.9335C82.9822 12.9335 82.8865 13.0292 82.8865 13.1249V23.9404C82.8865 24.0361 82.9822 24.1318 83.0779 24.1318H85.5664C85.6622 24.1318 85.6622 24.0361 85.6622 23.9404V13.1249C85.6622 13.0292 85.6622 12.9335 85.5664 12.9335H83.0779ZM82.5037 9.77502C82.5037 10.7321 83.3651 11.5935 84.3222 11.5935C85.2793 11.5935 86.045 10.7321 86.045 9.77502C86.045 8.8179 85.2793 8.0522 84.3222 8.0522C83.3651 8.0522 82.5037 8.8179 82.5037 9.77502ZM105.953 16.3791C106.91 16.3791 107.772 15.6135 107.772 14.6563C107.772 13.6992 106.91 12.9335 105.953 12.9335C104.996 12.9335 104.23 13.6992 104.23 14.6563C104.23 15.6135 104.996 16.3791 105.953 16.3791ZM105.953 13.1249C106.815 13.1249 107.58 13.7949 107.58 14.6563C107.58 15.5177 106.815 16.1877 105.953 16.1877C105.092 16.1877 104.422 15.5177 104.422 14.6563C104.422 13.7949 105.092 13.1249 105.953 13.1249ZM106.336 14.8478C106.623 14.752 106.815 14.5606 106.815 14.2735C106.815 13.8906 106.432 13.6992 106.049 13.6992H105.283V15.5177H105.666V14.9435H106.049L106.432 15.5177H106.91L106.336 14.8478ZM106.049 13.9863C106.24 13.9863 106.432 14.0821 106.432 14.2735C106.432 14.4649 106.24 14.5606 106.049 14.5606H105.666V13.9863H106.049Z" fill="white"/>
</g>
<defs>
<clipPath id="clip0_3_5040">
<rect width="108.537" height="33.1412" fill="white"/>
</clipPath>
</defs>
</svg>
